<mxfile host="app.diagrams.net" agent="Mozilla/5.0 (Windows NT 10.0; Win64; x64) AppleWebKit/537.36 (KHTML, like Gecko) Chrome/139.0.0.0 Safari/537.36 Edg/139.0.0.0" version="28.1.2">
  <diagram id="8nKttv4FPFjE6BWmqEQq" name="Pagina-1">
    <mxGraphModel dx="1034" dy="578" grid="1" gridSize="10" guides="1" tooltips="1" connect="1" arrows="1" fold="1" page="1" pageScale="1" pageWidth="827" pageHeight="1169" math="0" shadow="0">
      <root>
        <mxCell id="0" />
        <mxCell id="1" parent="0" />
        <mxCell id="uUZTRiH1TT_TuadIKXJ5-1" value="A1 - Send Physiological Data" style="html=1;shape=mxgraph.infographic.ribbonSimple;notch1=20;notch2=0;align=center;verticalAlign=middle;fontSize=14;fontStyle=0;fillColor=#fad9d5;flipH=0;spacingRight=0;spacingLeft=14;whiteSpace=wrap;strokeColor=#ae4132;" vertex="1" parent="1">
          <mxGeometry x="291" y="90" width="170" height="40" as="geometry" />
        </mxCell>
        <mxCell id="uUZTRiH1TT_TuadIKXJ5-2" value="l1: Physiological Data" style="rounded=0;whiteSpace=wrap;html=1;fillColor=#fad7ac;strokeColor=#b46504;" vertex="1" parent="1">
          <mxGeometry x="311" y="180" width="130" height="60" as="geometry" />
        </mxCell>
        <mxCell id="uUZTRiH1TT_TuadIKXJ5-3" value="" style="endArrow=classic;html=1;rounded=0;exitX=0;exitY=0;exitDx=85;exitDy=40;exitPerimeter=0;entryX=0.5;entryY=0;entryDx=0;entryDy=0;" edge="1" parent="1" source="uUZTRiH1TT_TuadIKXJ5-1" target="uUZTRiH1TT_TuadIKXJ5-2">
          <mxGeometry width="50" height="50" relative="1" as="geometry">
            <mxPoint x="381" y="260" as="sourcePoint" />
            <mxPoint x="431" y="210" as="targetPoint" />
          </mxGeometry>
        </mxCell>
        <mxCell id="uUZTRiH1TT_TuadIKXJ5-4" value="&amp;lt;&amp;lt;buffer&amp;gt;&amp;gt;&lt;br&gt;l1.1: Physiological Data&lt;br&gt;{1..*}" style="rounded=0;whiteSpace=wrap;html=1;fillColor=#fad7ac;strokeColor=#b46504;" vertex="1" parent="1">
          <mxGeometry x="311" y="280" width="130" height="60" as="geometry" />
        </mxCell>
        <mxCell id="uUZTRiH1TT_TuadIKXJ5-5" value="" style="endArrow=classic;html=1;rounded=0;exitX=0.5;exitY=1;exitDx=0;exitDy=0;entryX=0.5;entryY=0;entryDx=0;entryDy=0;" edge="1" parent="1" source="uUZTRiH1TT_TuadIKXJ5-2" target="uUZTRiH1TT_TuadIKXJ5-4">
          <mxGeometry width="50" height="50" relative="1" as="geometry">
            <mxPoint x="381" y="260" as="sourcePoint" />
            <mxPoint x="431" y="210" as="targetPoint" />
          </mxGeometry>
        </mxCell>
        <mxCell id="uUZTRiH1TT_TuadIKXJ5-6" value="" style="html=1;points=[];perimeter=orthogonalPerimeter;fillColor=strokeColor;rotation=90;strokeColor=light-dark(#000000,#000000);" vertex="1" parent="1">
          <mxGeometry x="377.88" y="178.13" width="5" height="413.75" as="geometry" />
        </mxCell>
        <mxCell id="uUZTRiH1TT_TuadIKXJ5-7" value="" style="endArrow=classic;html=1;rounded=0;exitX=0.5;exitY=1;exitDx=0;exitDy=0;entryX=-0.14;entryY=0.513;entryDx=0;entryDy=0;entryPerimeter=0;" edge="1" parent="1" source="uUZTRiH1TT_TuadIKXJ5-4" target="uUZTRiH1TT_TuadIKXJ5-6">
          <mxGeometry width="50" height="50" relative="1" as="geometry">
            <mxPoint x="381" y="260" as="sourcePoint" />
            <mxPoint x="431" y="210" as="targetPoint" />
          </mxGeometry>
        </mxCell>
        <mxCell id="uUZTRiH1TT_TuadIKXJ5-8" value="&amp;lt;&amp;lt;datastore&amp;gt;&amp;gt;&lt;div&gt;l2.1: Physiological Data&lt;/div&gt;" style="rounded=0;whiteSpace=wrap;html=1;fillColor=#fad7ac;strokeColor=#b46504;" vertex="1" parent="1">
          <mxGeometry x="171" y="550" width="140" height="60" as="geometry" />
        </mxCell>
        <mxCell id="uUZTRiH1TT_TuadIKXJ5-9" value="" style="endArrow=classic;html=1;rounded=0;" edge="1" parent="1" target="uUZTRiH1TT_TuadIKXJ5-23">
          <mxGeometry width="50" height="50" relative="1" as="geometry">
            <mxPoint x="511" y="386" as="sourcePoint" />
            <mxPoint x="431" y="310" as="targetPoint" />
          </mxGeometry>
        </mxCell>
        <mxCell id="uUZTRiH1TT_TuadIKXJ5-10" value="" style="endArrow=classic;html=1;rounded=0;entryX=0.5;entryY=0;entryDx=0;entryDy=0;" edge="1" parent="1" target="uUZTRiH1TT_TuadIKXJ5-22">
          <mxGeometry width="50" height="50" relative="1" as="geometry">
            <mxPoint x="241" y="385" as="sourcePoint" />
            <mxPoint x="431" y="310" as="targetPoint" />
          </mxGeometry>
        </mxCell>
        <mxCell id="uUZTRiH1TT_TuadIKXJ5-11" value="" style="endArrow=classic;html=1;rounded=0;exitX=0.5;exitY=1;exitDx=0;exitDy=0;entryX=0.5;entryY=0;entryDx=0;entryDy=0;" edge="1" parent="1" source="uUZTRiH1TT_TuadIKXJ5-22" target="uUZTRiH1TT_TuadIKXJ5-8">
          <mxGeometry width="50" height="50" relative="1" as="geometry">
            <mxPoint x="381" y="460" as="sourcePoint" />
            <mxPoint x="431" y="410" as="targetPoint" />
          </mxGeometry>
        </mxCell>
        <mxCell id="uUZTRiH1TT_TuadIKXJ5-12" value="" style="endArrow=classic;html=1;rounded=0;exitX=0.5;exitY=1;exitDx=0;exitDy=0;entryX=0.5;entryY=0;entryDx=0;entryDy=0;" edge="1" parent="1" source="uUZTRiH1TT_TuadIKXJ5-8" target="uUZTRiH1TT_TuadIKXJ5-15">
          <mxGeometry width="50" height="50" relative="1" as="geometry">
            <mxPoint x="381" y="460" as="sourcePoint" />
            <mxPoint x="231" y="650" as="targetPoint" />
          </mxGeometry>
        </mxCell>
        <mxCell id="uUZTRiH1TT_TuadIKXJ5-13" value="" style="endArrow=classic;html=1;rounded=0;entryX=0.5;entryY=0;entryDx=0;entryDy=0;exitX=0;exitY=0;exitDx=95;exitDy=40;exitPerimeter=0;" edge="1" parent="1" source="uUZTRiH1TT_TuadIKXJ5-23" target="uUZTRiH1TT_TuadIKXJ5-14">
          <mxGeometry width="50" height="50" relative="1" as="geometry">
            <mxPoint x="571" y="500" as="sourcePoint" />
            <mxPoint x="481" y="530" as="targetPoint" />
          </mxGeometry>
        </mxCell>
        <mxCell id="uUZTRiH1TT_TuadIKXJ5-14" value="" style="shape=sumEllipse;perimeter=ellipsePerimeter;whiteSpace=wrap;html=1;backgroundOutline=1;fillColor=#fad9d5;strokeColor=#ae4132;" vertex="1" parent="1">
          <mxGeometry x="491" y="500" width="30" height="30" as="geometry" />
        </mxCell>
        <mxCell id="uUZTRiH1TT_TuadIKXJ5-15" value="" style="shape=sumEllipse;perimeter=ellipsePerimeter;whiteSpace=wrap;html=1;backgroundOutline=1;fillColor=#fad9d5;strokeColor=#ae4132;" vertex="1" parent="1">
          <mxGeometry x="226" y="640" width="30" height="30" as="geometry" />
        </mxCell>
        <mxCell id="uUZTRiH1TT_TuadIKXJ5-16" value="" style="endArrow=none;dashed=1;html=1;dashPattern=1 3;strokeWidth=2;rounded=0;entryX=1;entryY=0.5;entryDx=0;entryDy=0;entryPerimeter=0;exitX=1;exitY=0.5;exitDx=0;exitDy=0;exitPerimeter=0;fillColor=#b0e3e6;strokeColor=#0e8088;" edge="1" parent="1" source="uUZTRiH1TT_TuadIKXJ5-23" target="uUZTRiH1TT_TuadIKXJ5-1">
          <mxGeometry width="50" height="50" relative="1" as="geometry">
            <mxPoint x="381" y="160" as="sourcePoint" />
            <mxPoint x="431" y="110" as="targetPoint" />
            <Array as="points">
              <mxPoint x="631" y="450" />
              <mxPoint x="631" y="270" />
              <mxPoint x="631" y="110" />
            </Array>
          </mxGeometry>
        </mxCell>
        <mxCell id="uUZTRiH1TT_TuadIKXJ5-17" value="" style="endArrow=none;dashed=1;html=1;dashPattern=1 3;strokeWidth=2;rounded=0;exitX=1;exitY=0.5;exitDx=0;exitDy=0;fillColor=#b0e3e6;strokeColor=#0e8088;" edge="1" parent="1" source="uUZTRiH1TT_TuadIKXJ5-8">
          <mxGeometry width="50" height="50" relative="1" as="geometry">
            <mxPoint x="631" y="580" as="sourcePoint" />
            <mxPoint x="631" y="450" as="targetPoint" />
            <Array as="points">
              <mxPoint x="631" y="580" />
            </Array>
          </mxGeometry>
        </mxCell>
        <mxCell id="uUZTRiH1TT_TuadIKXJ5-18" value="&amp;lt;&amp;lt;delay&amp;gt;&amp;gt;&lt;br&gt;1 second" style="shape=note;whiteSpace=wrap;html=1;backgroundOutline=1;darkOpacity=0.05;size=15;fillColor=#b0e3e6;strokeColor=#0e8088;" vertex="1" parent="1">
          <mxGeometry x="597" y="220" width="90" height="50" as="geometry" />
        </mxCell>
        <mxCell id="uUZTRiH1TT_TuadIKXJ5-19" value="&amp;lt;&amp;lt;frequency&amp;gt;&amp;gt;&lt;br&gt;nPatients * 15 / day" style="shape=note;whiteSpace=wrap;html=1;backgroundOutline=1;darkOpacity=0.05;size=15;fillColor=#d5e8d4;strokeColor=#82b366;" vertex="1" parent="1">
          <mxGeometry x="316" width="120" height="50" as="geometry" />
        </mxCell>
        <mxCell id="uUZTRiH1TT_TuadIKXJ5-20" value="" style="endArrow=none;dashed=1;html=1;dashPattern=1 3;strokeWidth=2;rounded=0;entryX=0.5;entryY=1;entryDx=0;entryDy=0;entryPerimeter=0;exitX=0;exitY=0;exitDx=85;exitDy=0;exitPerimeter=0;fillColor=#d5e8d4;strokeColor=#82b366;" edge="1" parent="1" source="uUZTRiH1TT_TuadIKXJ5-1" target="uUZTRiH1TT_TuadIKXJ5-19">
          <mxGeometry width="50" height="50" relative="1" as="geometry">
            <mxPoint x="381" y="260" as="sourcePoint" />
            <mxPoint x="431" y="210" as="targetPoint" />
            <Array as="points">
              <mxPoint x="376" y="50" />
            </Array>
          </mxGeometry>
        </mxCell>
        <mxCell id="uUZTRiH1TT_TuadIKXJ5-21" value="&amp;lt;&amp;lt;complexity&amp;gt;&amp;gt;&lt;br&gt;low" style="shape=note;whiteSpace=wrap;html=1;backgroundOutline=1;darkOpacity=0.05;size=15;fillColor=#b1ddf0;strokeColor=#10739e;" vertex="1" parent="1">
          <mxGeometry x="141" y="185" width="120" height="50" as="geometry" />
        </mxCell>
        <mxCell id="uUZTRiH1TT_TuadIKXJ5-22" value="A2 - Store Data" style="rounded=1;whiteSpace=wrap;html=1;fillColor=#fad9d5;strokeColor=#ae4132;" vertex="1" parent="1">
          <mxGeometry x="171" y="430" width="140" height="60" as="geometry" />
        </mxCell>
        <mxCell id="uUZTRiH1TT_TuadIKXJ5-23" value="A3 - Send to Handle Patient Data" style="html=1;shadow=0;dashed=0;align=center;verticalAlign=middle;shape=mxgraph.arrows2.arrow;dy=0;dx=10;notch=0;fillColor=#fad9d5;strokeColor=#ae4132;" vertex="1" parent="1">
          <mxGeometry x="411" y="430" width="200" height="40" as="geometry" />
        </mxCell>
        <mxCell id="uUZTRiH1TT_TuadIKXJ5-24" value="" style="strokeWidth=2;html=1;shape=mxgraph.flowchart.start_2;whiteSpace=wrap;fillColor=#f8cecc;strokeColor=#b85450;" vertex="1" parent="1">
          <mxGeometry x="241" y="95" width="30.62" height="30" as="geometry" />
        </mxCell>
        <mxCell id="uUZTRiH1TT_TuadIKXJ5-25" value="" style="endArrow=classic;html=1;rounded=0;exitX=1;exitY=0.5;exitDx=0;exitDy=0;exitPerimeter=0;entryX=0;entryY=0;entryDx=20;entryDy=20;entryPerimeter=0;" edge="1" parent="1" source="uUZTRiH1TT_TuadIKXJ5-24">
          <mxGeometry width="50" height="50" relative="1" as="geometry">
            <mxPoint x="226.62" y="100" as="sourcePoint" />
            <mxPoint x="311" y="110" as="targetPoint" />
          </mxGeometry>
        </mxCell>
      </root>
    </mxGraphModel>
  </diagram>
</mxfile>
